<svg xmlns="http://www.w3.org/2000/svg" width="900" height="540" viewBox="0 0 900 540" fill="none">
<rect width="900" height="540" rx="34" fill="#0B1527"/>
<circle cx="456" cy="308" r="138" fill="#153861"/>
<path d="M322 307C390 228 524 230 590 307" stroke="#71C8FF" stroke-width="6"/>
<path d="M287 307C381 192 531 194 626 307" stroke="#3AD2B5" stroke-width="4" stroke-dasharray="12 10"/>
<path d="M253 307C370 151 548 151 661 307" stroke="#7D8DFF" stroke-width="3" stroke-dasharray="16 10"/>
<circle cx="456" cy="165" r="16" fill="#D6E5FF"/>
<path d="M442 149H470V181H442V149Z" fill="#D6E5FF"/>
<path d="M426 156L442 164V176L426 184V156Z" fill="#7BC5FF"/>
<path d="M470 156L486 164V176L470 184V156Z" fill="#7BC5FF"/>
<circle cx="330" cy="309" r="9" fill="#F4C66B"/>
<circle cx="456" cy="309" r="9" fill="#F4C66B"/>
<circle cx="582" cy="309" r="9" fill="#F4C66B"/>
<text x="104" y="92" fill="#EAF3FF" font-family="Arial" font-size="30" font-weight="700">Cobertura orbital y continuidad de servicio</text>
<text x="104" y="132" fill="#B8CBE7" font-family="Arial" font-size="22">Las NTN expanden alcance, resiliencia y continuidad en zonas donde la infraestructura terrestre es insuficiente.</text>
</svg>