<svg xmlns="http://www.w3.org/2000/svg" viewBox="0 0 900 620" fill="none">
  <defs>
    <linearGradient id="bg" x1="0" x2="1" y1="0" y2="1">
      <stop offset="0%" stop-color="#0b1730"/>
      <stop offset="100%" stop-color="#06101d"/>
    </linearGradient>
    <linearGradient id="accent" x1="0" x2="1">
      <stop offset="0%" stop-color="#79aaff"/>
      <stop offset="100%" stop-color="#6af0da"/>
    </linearGradient>
    <filter id="blur"><feGaussianBlur stdDeviation="22"/></filter>
  </defs>
  <rect width="900" height="620" rx="36" fill="url(#bg)"/>
  <circle cx="712" cy="115" r="78" fill="#6af0da" opacity="0.14" filter="url(#blur)"/>
  <circle cx="160" cy="120" r="86" fill="#79aaff" opacity="0.14" filter="url(#blur)"/>
  <g opacity="0.35">
    <path d="M96 465C216 305 433 241 683 271" stroke="#6A8ACF" stroke-width="1.4"/>
    <path d="M122 507C265 347 491 294 781 331" stroke="#3B4B78" stroke-width="1.4"/>
    <path d="M149 552C324 402 560 365 816 413" stroke="#2A3556" stroke-width="1.2"/>
  </g>
  <g transform="translate(540,160)">
    <circle cx="0" cy="0" r="120" stroke="#6E84B6" stroke-width="1.4" opacity="0.5"/>
    <circle cx="0" cy="0" r="165" stroke="#4A5C8C" stroke-width="1.1" opacity="0.28"/>
    <circle cx="-96" cy="46" r="10" fill="#6AF0DA"/>
    <circle cx="84" cy="-76" r="9" fill="#79AAFF"/>
    <circle cx="92" cy="92" r="7" fill="#B388FF"/>
    <path d="M-96 46C-34 -14 24 -28 84 -76" stroke="url(#accent)" stroke-width="3" opacity="0.85"/>
    <path d="M-96 46C-18 64 33 85 92 92" stroke="#67E3D4" stroke-width="2.2" opacity="0.68"/>
    <g transform="rotate(-12)">
      <rect x="-18" y="-8" width="90" height="18" rx="9" fill="#DDE8FF"/>
      <rect x="-12" y="-40" width="24" height="80" rx="11" fill="#EAF1FF"/>
      <rect x="-88" y="-52" width="54" height="32" rx="10" fill="#6C83B6"/>
      <rect x="26" y="-52" width="54" height="32" rx="10" fill="#6C83B6"/>
      <circle cx="0" cy="0" r="15" fill="#85A6FF"/>
    </g>
  </g>
  <g transform="translate(96,118)">
    <rect x="0" y="0" width="286" height="198" rx="24" fill="#0d1a33" stroke="#213459"/>
    <text x="28" y="44" font-size="24" font-family="DejaVu Sans" fill="#EAF2FF">Mapa NTN</text>
    <text x="28" y="76" font-size="16" font-family="DejaVu Sans" fill="#9FB6D7">CSV actualizado: 2036 documentos</text>
    <text x="28" y="112" font-size="14" font-family="DejaVu Sans" fill="#CBE0FF">• 5 clústeres activos</text>
    <text x="28" y="140" font-size="14" font-family="DejaVu Sans" fill="#CBE0FF">• Términos fuertes: NTN, LEO, UAV, 3GPP</text>
    <text x="28" y="168" font-size="14" font-family="DejaVu Sans" fill="#CBE0FF">• Navegación por pestañas y mapa interactivo</text>
  </g>
</svg>