<svg xmlns="http://www.w3.org/2000/svg" width="960" height="720" viewBox="0 0 960 720" fill="none">
<defs>
  <linearGradient id="bg" x1="0" y1="0" x2="960" y2="720" gradientUnits="userSpaceOnUse">
    <stop stop-color="#0E1C33"/>
    <stop offset="1" stop-color="#09101C"/>
  </linearGradient>
  <radialGradient id="planet" cx="0" cy="0" r="1" gradientUnits="userSpaceOnUse" gradientTransform="translate(330 430) rotate(38) scale(210 190)">
    <stop stop-color="#6BB8FF"/>
    <stop offset="1" stop-color="#153A6A"/>
  </radialGradient>
  <linearGradient id="beam" x1="0" y1="0" x2="1" y2="1">
    <stop stop-color="#50E3C2" stop-opacity="0.9"/>
    <stop offset="1" stop-color="#7B8CFF" stop-opacity="0.1"/>
  </linearGradient>
  <filter id="glow"><feGaussianBlur stdDeviation="8" result="b"/><feMerge><feMergeNode in="b"/><feMergeNode in="SourceGraphic"/></feMerge></filter>
</defs>
<rect width="960" height="720" rx="40" fill="url(#bg)"/>
<g opacity="0.2">
  <path d="M0 120H960M0 240H960M0 360H960M0 480H960M0 600H960" stroke="#9EC1FF"/>
  <path d="M120 0V720M240 0V720M360 0V720M480 0V720M600 0V720M720 0V720M840 0V720" stroke="#9EC1FF"/>
</g>
<circle cx="330" cy="430" r="168" fill="url(#planet)"/>
<path d="M213 341C255 396 316 420 374 435C421 447 475 463 525 519" stroke="#A8F0FF" stroke-width="6" opacity="0.65"/>
<path d="M220 500C286 515 343 537 397 570" stroke="#A8F0FF" stroke-width="6" opacity="0.45"/>
<g opacity="0.85">
  <ellipse cx="474" cy="242" rx="255" ry="92" transform="rotate(-20 474 242)" stroke="#6D8CFF" stroke-width="4"/>
  <ellipse cx="494" cy="250" rx="302" ry="122" transform="rotate(-20 494 250)" stroke="#2ED3B7" stroke-width="2.8" stroke-dasharray="12 10"/>
</g>
<g filter="url(#glow)">
  <circle cx="630" cy="176" r="7" fill="#8CE7FF"/>
  <circle cx="720" cy="276" r="7" fill="#8CE7FF"/>
  <circle cx="550" cy="132" r="7" fill="#8CE7FF"/>
  <circle cx="388" cy="192" r="7" fill="#8CE7FF"/>
</g>
<g>
  <rect x="614" y="156" width="34" height="34" rx="7" fill="#D6E5FF"/>
  <path d="M598 166L614 173V184L598 191V166Z" fill="#74C0FF"/>
  <path d="M648 166L664 173V184L648 191V166Z" fill="#74C0FF"/>
  <path d="M614 173H648" stroke="#0E1C33" stroke-width="4"/>
</g>
<g opacity="0.82">
  <path d="M476 252L617 178" stroke="url(#beam)" stroke-width="3.5"/>
  <path d="M477 252L721 278" stroke="url(#beam)" stroke-width="3.5"/>
  <path d="M477 252L391 197" stroke="url(#beam)" stroke-width="3.5"/>
</g>
<g>
  <rect x="589" y="468" width="256" height="148" rx="26" fill="#101B31" stroke="#5D86FF" stroke-opacity="0.45"/>
  <text x="625" y="518" fill="#EAF3FF" font-family="Arial, sans-serif" font-size="28" font-weight="700">NTN Research View</text>
  <text x="625" y="556" fill="#B9CCE8" font-family="Arial, sans-serif" font-size="22">Cobertura extendida</text>
  <text x="625" y="588" fill="#B9CCE8" font-family="Arial, sans-serif" font-size="22">Integración 5G / 6G</text>
</g>
</svg>